<mxfile host="app.diagrams.net" agent="Mozilla/5.0 (Windows NT 10.0; Win64; x64) AppleWebKit/537.36 (KHTML, like Gecko) Chrome/129.0.0.0 Safari/537.36" version="24.7.17">
  <diagram id="C5RBs43oDa-KdzZeNtuy" name="Page-1">
    <mxGraphModel dx="3781" dy="1274" grid="1" gridSize="10" guides="1" tooltips="1" connect="1" arrows="1" fold="1" page="1" pageScale="1" pageWidth="827" pageHeight="1169" math="0" shadow="0">
      <root>
        <mxCell id="WIyWlLk6GJQsqaUBKTNV-0" />
        <mxCell id="WIyWlLk6GJQsqaUBKTNV-1" parent="WIyWlLk6GJQsqaUBKTNV-0" />
        <mxCell id="lY9ykRblTHQBcWYiNTN7-0" value="&lt;font style=&quot;font-size: 18px;&quot;&gt;RENTAL&lt;/font&gt;" style="rounded=0;whiteSpace=wrap;html=1;direction=west;" vertex="1" parent="WIyWlLk6GJQsqaUBKTNV-1">
          <mxGeometry x="275" y="240" width="120" height="60" as="geometry" />
        </mxCell>
        <mxCell id="lY9ykRblTHQBcWYiNTN7-1" value="RENTAL_END_DATE" style="ellipse;whiteSpace=wrap;html=1;" vertex="1" parent="WIyWlLk6GJQsqaUBKTNV-1">
          <mxGeometry x="500" y="205" width="140" height="60" as="geometry" />
        </mxCell>
        <mxCell id="lY9ykRblTHQBcWYiNTN7-2" value="" style="endArrow=none;html=1;rounded=0;entryX=0.045;entryY=0.662;entryDx=0;entryDy=0;entryPerimeter=0;exitX=0;exitY=0.5;exitDx=0;exitDy=0;" edge="1" parent="WIyWlLk6GJQsqaUBKTNV-1" source="lY9ykRblTHQBcWYiNTN7-0" target="lY9ykRblTHQBcWYiNTN7-1">
          <mxGeometry width="50" height="50" relative="1" as="geometry">
            <mxPoint x="380" y="310" as="sourcePoint" />
            <mxPoint x="430" y="260" as="targetPoint" />
          </mxGeometry>
        </mxCell>
        <mxCell id="lY9ykRblTHQBcWYiNTN7-3" value="RENTAL_START_DATE" style="ellipse;whiteSpace=wrap;html=1;" vertex="1" parent="WIyWlLk6GJQsqaUBKTNV-1">
          <mxGeometry x="340" y="380" width="140" height="60" as="geometry" />
        </mxCell>
        <mxCell id="lY9ykRblTHQBcWYiNTN7-4" value="" style="endArrow=none;html=1;rounded=0;entryX=0.25;entryY=0;entryDx=0;entryDy=0;exitX=0.571;exitY=0;exitDx=0;exitDy=0;exitPerimeter=0;" edge="1" parent="WIyWlLk6GJQsqaUBKTNV-1" source="lY9ykRblTHQBcWYiNTN7-3" target="lY9ykRblTHQBcWYiNTN7-0">
          <mxGeometry width="50" height="50" relative="1" as="geometry">
            <mxPoint x="410" y="330" as="sourcePoint" />
            <mxPoint x="460" y="280" as="targetPoint" />
          </mxGeometry>
        </mxCell>
        <mxCell id="lY9ykRblTHQBcWYiNTN7-6" value="RENTAL_ID" style="ellipse;whiteSpace=wrap;html=1;" vertex="1" parent="WIyWlLk6GJQsqaUBKTNV-1">
          <mxGeometry x="80" y="210" width="140" height="60" as="geometry" />
        </mxCell>
        <mxCell id="lY9ykRblTHQBcWYiNTN7-7" value="ACTUAL_RETURN_DATE" style="ellipse;whiteSpace=wrap;html=1;" vertex="1" parent="WIyWlLk6GJQsqaUBKTNV-1">
          <mxGeometry x="270" y="130" width="160" height="50" as="geometry" />
        </mxCell>
        <mxCell id="lY9ykRblTHQBcWYiNTN7-9" value="" style="endArrow=none;html=1;rounded=0;exitX=0.561;exitY=0.986;exitDx=0;exitDy=0;exitPerimeter=0;entryX=0.362;entryY=1.005;entryDx=0;entryDy=0;entryPerimeter=0;" edge="1" parent="WIyWlLk6GJQsqaUBKTNV-1" source="lY9ykRblTHQBcWYiNTN7-7" target="lY9ykRblTHQBcWYiNTN7-0">
          <mxGeometry width="50" height="50" relative="1" as="geometry">
            <mxPoint x="410" y="330" as="sourcePoint" />
            <mxPoint x="460" y="280" as="targetPoint" />
          </mxGeometry>
        </mxCell>
        <mxCell id="lY9ykRblTHQBcWYiNTN7-11" value="" style="endArrow=none;html=1;rounded=0;exitX=1;exitY=0.5;exitDx=0;exitDy=0;entryX=1;entryY=0.5;entryDx=0;entryDy=0;" edge="1" parent="WIyWlLk6GJQsqaUBKTNV-1" source="lY9ykRblTHQBcWYiNTN7-6" target="lY9ykRblTHQBcWYiNTN7-0">
          <mxGeometry width="50" height="50" relative="1" as="geometry">
            <mxPoint x="410" y="330" as="sourcePoint" />
            <mxPoint x="460" y="280" as="targetPoint" />
          </mxGeometry>
        </mxCell>
        <mxCell id="lY9ykRblTHQBcWYiNTN7-12" value="EMPLOYEE_ID" style="ellipse;whiteSpace=wrap;html=1;" vertex="1" parent="WIyWlLk6GJQsqaUBKTNV-1">
          <mxGeometry x="20" y="310" width="140" height="60" as="geometry" />
        </mxCell>
        <mxCell id="lY9ykRblTHQBcWYiNTN7-13" value="" style="endArrow=none;html=1;rounded=0;exitX=1;exitY=0.333;exitDx=0;exitDy=0;exitPerimeter=0;" edge="1" parent="WIyWlLk6GJQsqaUBKTNV-1" source="lY9ykRblTHQBcWYiNTN7-12">
          <mxGeometry width="50" height="50" relative="1" as="geometry">
            <mxPoint x="410" y="330" as="sourcePoint" />
            <mxPoint x="280" y="300" as="targetPoint" />
          </mxGeometry>
        </mxCell>
        <mxCell id="lY9ykRblTHQBcWYiNTN7-14" value="CUSTOMER_ID" style="ellipse;whiteSpace=wrap;html=1;" vertex="1" parent="WIyWlLk6GJQsqaUBKTNV-1">
          <mxGeometry x="480" y="360" width="140" height="60" as="geometry" />
        </mxCell>
        <mxCell id="lY9ykRblTHQBcWYiNTN7-15" value="" style="endArrow=none;html=1;rounded=0;exitX=0;exitY=0;exitDx=0;exitDy=0;" edge="1" parent="WIyWlLk6GJQsqaUBKTNV-1" source="lY9ykRblTHQBcWYiNTN7-0" target="lY9ykRblTHQBcWYiNTN7-14">
          <mxGeometry width="50" height="50" relative="1" as="geometry">
            <mxPoint x="410" y="330" as="sourcePoint" />
            <mxPoint x="460" y="280" as="targetPoint" />
          </mxGeometry>
        </mxCell>
        <mxCell id="lY9ykRblTHQBcWYiNTN7-18" value="VEHICLE_ID" style="ellipse;whiteSpace=wrap;html=1;" vertex="1" parent="WIyWlLk6GJQsqaUBKTNV-1">
          <mxGeometry x="180" y="390" width="140" height="60" as="geometry" />
        </mxCell>
        <mxCell id="lY9ykRblTHQBcWYiNTN7-19" value="DROPOFF_BRANCH_ID" style="ellipse;whiteSpace=wrap;html=1;" vertex="1" parent="WIyWlLk6GJQsqaUBKTNV-1">
          <mxGeometry x="90" y="130" width="150" height="60" as="geometry" />
        </mxCell>
        <mxCell id="lY9ykRblTHQBcWYiNTN7-20" value="" style="endArrow=none;html=1;rounded=0;exitX=0.714;exitY=0;exitDx=0;exitDy=0;exitPerimeter=0;entryX=0.59;entryY=-0.018;entryDx=0;entryDy=0;entryPerimeter=0;" edge="1" parent="WIyWlLk6GJQsqaUBKTNV-1" source="lY9ykRblTHQBcWYiNTN7-18" target="lY9ykRblTHQBcWYiNTN7-0">
          <mxGeometry width="50" height="50" relative="1" as="geometry">
            <mxPoint x="390" y="310" as="sourcePoint" />
            <mxPoint x="440" y="260" as="targetPoint" />
          </mxGeometry>
        </mxCell>
        <mxCell id="lY9ykRblTHQBcWYiNTN7-23" value="" style="endArrow=none;html=1;rounded=0;exitX=1;exitY=1;exitDx=0;exitDy=0;entryX=1;entryY=1;entryDx=0;entryDy=0;" edge="1" parent="WIyWlLk6GJQsqaUBKTNV-1" source="lY9ykRblTHQBcWYiNTN7-19" target="lY9ykRblTHQBcWYiNTN7-0">
          <mxGeometry width="50" height="50" relative="1" as="geometry">
            <mxPoint x="390" y="310" as="sourcePoint" />
            <mxPoint x="440" y="260" as="targetPoint" />
          </mxGeometry>
        </mxCell>
        <mxCell id="lY9ykRblTHQBcWYiNTN7-24" value="PICKUP_BRANCH_ID" style="ellipse;whiteSpace=wrap;html=1;" vertex="1" parent="WIyWlLk6GJQsqaUBKTNV-1">
          <mxGeometry x="460" y="125" width="150" height="60" as="geometry" />
        </mxCell>
        <mxCell id="lY9ykRblTHQBcWYiNTN7-27" value="" style="endArrow=none;html=1;rounded=0;entryX=0.095;entryY=0.827;entryDx=0;entryDy=0;entryPerimeter=0;exitX=0;exitY=1;exitDx=0;exitDy=0;" edge="1" parent="WIyWlLk6GJQsqaUBKTNV-1" source="lY9ykRblTHQBcWYiNTN7-0" target="lY9ykRblTHQBcWYiNTN7-24">
          <mxGeometry width="50" height="50" relative="1" as="geometry">
            <mxPoint x="390" y="310" as="sourcePoint" />
            <mxPoint x="440" y="260" as="targetPoint" />
          </mxGeometry>
        </mxCell>
        <mxCell id="lY9ykRblTHQBcWYiNTN7-28" value="" style="endArrow=none;html=1;rounded=0;entryX=0.5;entryY=0;entryDx=0;entryDy=0;exitX=0.5;exitY=0;exitDx=0;exitDy=0;" edge="1" parent="WIyWlLk6GJQsqaUBKTNV-1" source="lY9ykRblTHQBcWYiNTN7-29" target="lY9ykRblTHQBcWYiNTN7-0">
          <mxGeometry width="50" height="50" relative="1" as="geometry">
            <mxPoint x="330" y="490" as="sourcePoint" />
            <mxPoint x="400" y="330" as="targetPoint" />
          </mxGeometry>
        </mxCell>
        <mxCell id="lY9ykRblTHQBcWYiNTN7-29" value="&lt;font style=&quot;font-size: 14px;&quot;&gt;RECEIVES PAYMENTS&lt;/font&gt;" style="rhombus;whiteSpace=wrap;html=1;" vertex="1" parent="WIyWlLk6GJQsqaUBKTNV-1">
          <mxGeometry x="280" y="540" width="110" height="130" as="geometry" />
        </mxCell>
        <mxCell id="lY9ykRblTHQBcWYiNTN7-30" value="" style="endArrow=none;html=1;rounded=0;entryX=0.5;entryY=1;entryDx=0;entryDy=0;exitX=0.5;exitY=0;exitDx=0;exitDy=0;" edge="1" parent="WIyWlLk6GJQsqaUBKTNV-1" source="lY9ykRblTHQBcWYiNTN7-31" target="lY9ykRblTHQBcWYiNTN7-29">
          <mxGeometry width="50" height="50" relative="1" as="geometry">
            <mxPoint x="350" y="830" as="sourcePoint" />
            <mxPoint x="400" y="730" as="targetPoint" />
          </mxGeometry>
        </mxCell>
        <mxCell id="lY9ykRblTHQBcWYiNTN7-31" value="&lt;font style=&quot;font-size: 18px;&quot;&gt;PAYMENTS&lt;/font&gt;" style="rounded=0;whiteSpace=wrap;html=1;" vertex="1" parent="WIyWlLk6GJQsqaUBKTNV-1">
          <mxGeometry x="275" y="830" width="120" height="70" as="geometry" />
        </mxCell>
        <mxCell id="lY9ykRblTHQBcWYiNTN7-34" value="AMOUNT" style="ellipse;whiteSpace=wrap;html=1;" vertex="1" parent="WIyWlLk6GJQsqaUBKTNV-1">
          <mxGeometry x="510" y="837.5" width="150" height="55" as="geometry" />
        </mxCell>
        <mxCell id="lY9ykRblTHQBcWYiNTN7-35" value="PAYMENT_METHOD" style="ellipse;whiteSpace=wrap;html=1;" vertex="1" parent="WIyWlLk6GJQsqaUBKTNV-1">
          <mxGeometry x="60" y="837.5" width="150" height="55" as="geometry" />
        </mxCell>
        <mxCell id="lY9ykRblTHQBcWYiNTN7-36" value="RENTAL_ID" style="ellipse;whiteSpace=wrap;html=1;" vertex="1" parent="WIyWlLk6GJQsqaUBKTNV-1">
          <mxGeometry x="70" y="930" width="150" height="55" as="geometry" />
        </mxCell>
        <mxCell id="lY9ykRblTHQBcWYiNTN7-37" value="PAYMENT_ID" style="ellipse;whiteSpace=wrap;html=1;" vertex="1" parent="WIyWlLk6GJQsqaUBKTNV-1">
          <mxGeometry x="440" y="920" width="150" height="55" as="geometry" />
        </mxCell>
        <mxCell id="lY9ykRblTHQBcWYiNTN7-38" value="PAYMENT_DATE" style="ellipse;whiteSpace=wrap;html=1;" vertex="1" parent="WIyWlLk6GJQsqaUBKTNV-1">
          <mxGeometry x="250" y="985" width="150" height="55" as="geometry" />
        </mxCell>
        <mxCell id="lY9ykRblTHQBcWYiNTN7-39" value="" style="endArrow=none;html=1;rounded=0;entryX=0;entryY=0.5;entryDx=0;entryDy=0;exitX=1;exitY=0.5;exitDx=0;exitDy=0;" edge="1" parent="WIyWlLk6GJQsqaUBKTNV-1" source="lY9ykRblTHQBcWYiNTN7-31" target="lY9ykRblTHQBcWYiNTN7-34">
          <mxGeometry width="50" height="50" relative="1" as="geometry">
            <mxPoint x="350" y="940" as="sourcePoint" />
            <mxPoint x="400" y="890" as="targetPoint" />
          </mxGeometry>
        </mxCell>
        <mxCell id="lY9ykRblTHQBcWYiNTN7-40" value="" style="endArrow=none;html=1;rounded=0;entryX=0;entryY=0.5;entryDx=0;entryDy=0;exitX=0.75;exitY=1;exitDx=0;exitDy=0;" edge="1" parent="WIyWlLk6GJQsqaUBKTNV-1" source="lY9ykRblTHQBcWYiNTN7-31" target="lY9ykRblTHQBcWYiNTN7-37">
          <mxGeometry width="50" height="50" relative="1" as="geometry">
            <mxPoint x="350" y="940" as="sourcePoint" />
            <mxPoint x="400" y="890" as="targetPoint" />
          </mxGeometry>
        </mxCell>
        <mxCell id="lY9ykRblTHQBcWYiNTN7-41" value="" style="endArrow=none;html=1;rounded=0;entryX=0.405;entryY=-0.002;entryDx=0;entryDy=0;exitX=0.347;exitY=0.995;exitDx=0;exitDy=0;exitPerimeter=0;entryPerimeter=0;" edge="1" parent="WIyWlLk6GJQsqaUBKTNV-1" source="lY9ykRblTHQBcWYiNTN7-31" target="lY9ykRblTHQBcWYiNTN7-38">
          <mxGeometry width="50" height="50" relative="1" as="geometry">
            <mxPoint x="375" y="910" as="sourcePoint" />
            <mxPoint x="450" y="958" as="targetPoint" />
          </mxGeometry>
        </mxCell>
        <mxCell id="lY9ykRblTHQBcWYiNTN7-42" value="" style="endArrow=none;html=1;rounded=0;entryX=0;entryY=1;entryDx=0;entryDy=0;exitX=1;exitY=0;exitDx=0;exitDy=0;" edge="1" parent="WIyWlLk6GJQsqaUBKTNV-1" source="lY9ykRblTHQBcWYiNTN7-36" target="lY9ykRblTHQBcWYiNTN7-31">
          <mxGeometry width="50" height="50" relative="1" as="geometry">
            <mxPoint x="385" y="920" as="sourcePoint" />
            <mxPoint x="460" y="968" as="targetPoint" />
          </mxGeometry>
        </mxCell>
        <mxCell id="lY9ykRblTHQBcWYiNTN7-44" value="" style="endArrow=none;html=1;rounded=0;entryX=0;entryY=0.5;entryDx=0;entryDy=0;exitX=1;exitY=0.5;exitDx=0;exitDy=0;" edge="1" parent="WIyWlLk6GJQsqaUBKTNV-1" source="lY9ykRblTHQBcWYiNTN7-35" target="lY9ykRblTHQBcWYiNTN7-31">
          <mxGeometry width="50" height="50" relative="1" as="geometry">
            <mxPoint x="350" y="940" as="sourcePoint" />
            <mxPoint x="400" y="890" as="targetPoint" />
          </mxGeometry>
        </mxCell>
        <mxCell id="lY9ykRblTHQBcWYiNTN7-45" value="&lt;font style=&quot;font-size: 14px;&quot;&gt;HANDELS&lt;/font&gt;" style="rhombus;whiteSpace=wrap;html=1;" vertex="1" parent="WIyWlLk6GJQsqaUBKTNV-1">
          <mxGeometry x="-290" y="230" width="100" height="110" as="geometry" />
        </mxCell>
        <mxCell id="lY9ykRblTHQBcWYiNTN7-46" value="" style="endArrow=none;html=1;rounded=0;exitX=1;exitY=0.5;exitDx=0;exitDy=0;entryX=1;entryY=0.25;entryDx=0;entryDy=0;" edge="1" parent="WIyWlLk6GJQsqaUBKTNV-1" source="lY9ykRblTHQBcWYiNTN7-45" target="lY9ykRblTHQBcWYiNTN7-0">
          <mxGeometry width="50" height="50" relative="1" as="geometry">
            <mxPoint x="300" y="290" as="sourcePoint" />
            <mxPoint x="350" y="240" as="targetPoint" />
          </mxGeometry>
        </mxCell>
        <mxCell id="lY9ykRblTHQBcWYiNTN7-47" value="&lt;font style=&quot;font-size: 18px;&quot;&gt;EMPLOYEES&lt;/font&gt;" style="rounded=0;whiteSpace=wrap;html=1;" vertex="1" parent="WIyWlLk6GJQsqaUBKTNV-1">
          <mxGeometry x="-580" y="255" width="120" height="60" as="geometry" />
        </mxCell>
        <mxCell id="lY9ykRblTHQBcWYiNTN7-48" value="" style="endArrow=none;html=1;rounded=0;entryX=0;entryY=0.5;entryDx=0;entryDy=0;exitX=1;exitY=0.5;exitDx=0;exitDy=0;" edge="1" parent="WIyWlLk6GJQsqaUBKTNV-1" source="lY9ykRblTHQBcWYiNTN7-47" target="lY9ykRblTHQBcWYiNTN7-45">
          <mxGeometry width="50" height="50" relative="1" as="geometry">
            <mxPoint x="-70" y="290" as="sourcePoint" />
            <mxPoint x="-20" y="240" as="targetPoint" />
          </mxGeometry>
        </mxCell>
        <mxCell id="lY9ykRblTHQBcWYiNTN7-50" value="EMPLOYEE_ID" style="ellipse;whiteSpace=wrap;html=1;" vertex="1" parent="WIyWlLk6GJQsqaUBKTNV-1">
          <mxGeometry x="-595" y="385" width="150" height="55" as="geometry" />
        </mxCell>
        <mxCell id="lY9ykRblTHQBcWYiNTN7-51" value="E-MAIL" style="ellipse;whiteSpace=wrap;html=1;" vertex="1" parent="WIyWlLk6GJQsqaUBKTNV-1">
          <mxGeometry x="-780" y="255" width="120" height="55" as="geometry" />
        </mxCell>
        <mxCell id="lY9ykRblTHQBcWYiNTN7-52" value="FIRST_NAME" style="ellipse;whiteSpace=wrap;html=1;" vertex="1" parent="WIyWlLk6GJQsqaUBKTNV-1">
          <mxGeometry x="-770" y="330" width="150" height="55" as="geometry" />
        </mxCell>
        <mxCell id="lY9ykRblTHQBcWYiNTN7-53" value="LAST_NAME" style="ellipse;whiteSpace=wrap;html=1;" vertex="1" parent="WIyWlLk6GJQsqaUBKTNV-1">
          <mxGeometry x="-445" y="330" width="150" height="55" as="geometry" />
        </mxCell>
        <mxCell id="lY9ykRblTHQBcWYiNTN7-54" value="PHONE" style="ellipse;whiteSpace=wrap;html=1;" vertex="1" parent="WIyWlLk6GJQsqaUBKTNV-1">
          <mxGeometry x="-670" y="150" width="90" height="55" as="geometry" />
        </mxCell>
        <mxCell id="lY9ykRblTHQBcWYiNTN7-55" value="ADDRESS" style="ellipse;whiteSpace=wrap;html=1;" vertex="1" parent="WIyWlLk6GJQsqaUBKTNV-1">
          <mxGeometry x="-470" y="155" width="150" height="55" as="geometry" />
        </mxCell>
        <mxCell id="lY9ykRblTHQBcWYiNTN7-56" value="STATE" style="ellipse;whiteSpace=wrap;html=1;" vertex="1" parent="WIyWlLk6GJQsqaUBKTNV-1">
          <mxGeometry x="-780" y="180" width="100" height="55" as="geometry" />
        </mxCell>
        <mxCell id="lY9ykRblTHQBcWYiNTN7-57" value="CITY" style="ellipse;whiteSpace=wrap;html=1;" vertex="1" parent="WIyWlLk6GJQsqaUBKTNV-1">
          <mxGeometry x="-570" y="125" width="90" height="55" as="geometry" />
        </mxCell>
        <mxCell id="lY9ykRblTHQBcWYiNTN7-61" value="" style="endArrow=none;html=1;rounded=0;entryX=0.388;entryY=0.993;entryDx=0;entryDy=0;entryPerimeter=0;exitX=1;exitY=0;exitDx=0;exitDy=0;" edge="1" parent="WIyWlLk6GJQsqaUBKTNV-1" source="lY9ykRblTHQBcWYiNTN7-47" target="lY9ykRblTHQBcWYiNTN7-55">
          <mxGeometry width="50" height="50" relative="1" as="geometry">
            <mxPoint x="-430" y="290" as="sourcePoint" />
            <mxPoint x="-380" y="240" as="targetPoint" />
          </mxGeometry>
        </mxCell>
        <mxCell id="lY9ykRblTHQBcWYiNTN7-62" value="" style="endArrow=none;html=1;rounded=0;exitX=0.624;exitY=0.05;exitDx=0;exitDy=0;exitPerimeter=0;entryX=0.5;entryY=1;entryDx=0;entryDy=0;" edge="1" parent="WIyWlLk6GJQsqaUBKTNV-1" source="lY9ykRblTHQBcWYiNTN7-47" target="lY9ykRblTHQBcWYiNTN7-57">
          <mxGeometry width="50" height="50" relative="1" as="geometry">
            <mxPoint x="-430" y="290" as="sourcePoint" />
            <mxPoint x="-380" y="240" as="targetPoint" />
          </mxGeometry>
        </mxCell>
        <mxCell id="lY9ykRblTHQBcWYiNTN7-63" value="" style="endArrow=none;html=1;rounded=0;exitX=0.5;exitY=0;exitDx=0;exitDy=0;entryX=0.5;entryY=1;entryDx=0;entryDy=0;" edge="1" parent="WIyWlLk6GJQsqaUBKTNV-1" source="lY9ykRblTHQBcWYiNTN7-50" target="lY9ykRblTHQBcWYiNTN7-47">
          <mxGeometry width="50" height="50" relative="1" as="geometry">
            <mxPoint x="-430" y="290" as="sourcePoint" />
            <mxPoint x="-380" y="240" as="targetPoint" />
          </mxGeometry>
        </mxCell>
        <mxCell id="lY9ykRblTHQBcWYiNTN7-64" value="" style="endArrow=none;html=1;rounded=0;exitX=0;exitY=0;exitDx=0;exitDy=0;entryX=1;entryY=1;entryDx=0;entryDy=0;" edge="1" parent="WIyWlLk6GJQsqaUBKTNV-1" source="lY9ykRblTHQBcWYiNTN7-53" target="lY9ykRblTHQBcWYiNTN7-47">
          <mxGeometry width="50" height="50" relative="1" as="geometry">
            <mxPoint x="-430" y="290" as="sourcePoint" />
            <mxPoint x="-380" y="240" as="targetPoint" />
          </mxGeometry>
        </mxCell>
        <mxCell id="lY9ykRblTHQBcWYiNTN7-65" value="" style="endArrow=none;html=1;rounded=0;entryX=0;entryY=1;entryDx=0;entryDy=0;exitX=1;exitY=0.5;exitDx=0;exitDy=0;" edge="1" parent="WIyWlLk6GJQsqaUBKTNV-1" source="lY9ykRblTHQBcWYiNTN7-52" target="lY9ykRblTHQBcWYiNTN7-47">
          <mxGeometry width="50" height="50" relative="1" as="geometry">
            <mxPoint x="-430" y="290" as="sourcePoint" />
            <mxPoint x="-380" y="240" as="targetPoint" />
          </mxGeometry>
        </mxCell>
        <mxCell id="lY9ykRblTHQBcWYiNTN7-66" value="" style="endArrow=none;html=1;rounded=0;exitX=0;exitY=0.5;exitDx=0;exitDy=0;entryX=1;entryY=0.5;entryDx=0;entryDy=0;" edge="1" parent="WIyWlLk6GJQsqaUBKTNV-1" source="lY9ykRblTHQBcWYiNTN7-47" target="lY9ykRblTHQBcWYiNTN7-51">
          <mxGeometry width="50" height="50" relative="1" as="geometry">
            <mxPoint x="-430" y="290" as="sourcePoint" />
            <mxPoint x="-380" y="240" as="targetPoint" />
          </mxGeometry>
        </mxCell>
        <mxCell id="lY9ykRblTHQBcWYiNTN7-67" value="" style="endArrow=none;html=1;rounded=0;entryX=1;entryY=1;entryDx=0;entryDy=0;exitX=0.25;exitY=0;exitDx=0;exitDy=0;" edge="1" parent="WIyWlLk6GJQsqaUBKTNV-1" source="lY9ykRblTHQBcWYiNTN7-47" target="lY9ykRblTHQBcWYiNTN7-54">
          <mxGeometry width="50" height="50" relative="1" as="geometry">
            <mxPoint x="-430" y="290" as="sourcePoint" />
            <mxPoint x="-380" y="240" as="targetPoint" />
          </mxGeometry>
        </mxCell>
        <mxCell id="lY9ykRblTHQBcWYiNTN7-68" value="" style="endArrow=none;html=1;rounded=0;exitX=0;exitY=0;exitDx=0;exitDy=0;entryX=1;entryY=0.5;entryDx=0;entryDy=0;" edge="1" parent="WIyWlLk6GJQsqaUBKTNV-1" source="lY9ykRblTHQBcWYiNTN7-47" target="lY9ykRblTHQBcWYiNTN7-56">
          <mxGeometry width="50" height="50" relative="1" as="geometry">
            <mxPoint x="-430" y="290" as="sourcePoint" />
            <mxPoint x="-380" y="240" as="targetPoint" />
          </mxGeometry>
        </mxCell>
        <mxCell id="lY9ykRblTHQBcWYiNTN7-69" value="&lt;font style=&quot;font-size: 14px;&quot;&gt;RENTS&lt;/font&gt;" style="rhombus;whiteSpace=wrap;html=1;" vertex="1" parent="WIyWlLk6GJQsqaUBKTNV-1">
          <mxGeometry x="-310" y="585" width="100" height="115" as="geometry" />
        </mxCell>
        <mxCell id="lY9ykRblTHQBcWYiNTN7-70" value="" style="endArrow=none;html=1;rounded=0;exitX=1;exitY=0.5;exitDx=0;exitDy=0;entryX=0.75;entryY=0;entryDx=0;entryDy=0;" edge="1" parent="WIyWlLk6GJQsqaUBKTNV-1" source="lY9ykRblTHQBcWYiNTN7-69" target="lY9ykRblTHQBcWYiNTN7-0">
          <mxGeometry width="50" height="50" relative="1" as="geometry">
            <mxPoint x="90" y="700" as="sourcePoint" />
            <mxPoint x="280" y="320" as="targetPoint" />
          </mxGeometry>
        </mxCell>
        <mxCell id="lY9ykRblTHQBcWYiNTN7-71" value="&lt;font style=&quot;font-size: 18px;&quot;&gt;CUSTOMERS&lt;/font&gt;" style="rounded=0;whiteSpace=wrap;html=1;" vertex="1" parent="WIyWlLk6GJQsqaUBKTNV-1">
          <mxGeometry x="-610" y="640" width="150" height="60" as="geometry" />
        </mxCell>
        <mxCell id="lY9ykRblTHQBcWYiNTN7-72" value="" style="endArrow=none;html=1;rounded=0;exitX=1;exitY=0.25;exitDx=0;exitDy=0;entryX=0;entryY=0.5;entryDx=0;entryDy=0;" edge="1" parent="WIyWlLk6GJQsqaUBKTNV-1" source="lY9ykRblTHQBcWYiNTN7-71" target="lY9ykRblTHQBcWYiNTN7-69">
          <mxGeometry width="50" height="50" relative="1" as="geometry">
            <mxPoint x="-210" y="670" as="sourcePoint" />
            <mxPoint x="-160" y="620" as="targetPoint" />
          </mxGeometry>
        </mxCell>
        <mxCell id="lY9ykRblTHQBcWYiNTN7-73" value="CUSTOMER_ID" style="ellipse;whiteSpace=wrap;html=1;" vertex="1" parent="WIyWlLk6GJQsqaUBKTNV-1">
          <mxGeometry x="-820" y="615" width="150" height="55" as="geometry" />
        </mxCell>
        <mxCell id="lY9ykRblTHQBcWYiNTN7-74" value="ADDRESS" style="ellipse;whiteSpace=wrap;html=1;" vertex="1" parent="WIyWlLk6GJQsqaUBKTNV-1">
          <mxGeometry x="-790" y="740" width="120" height="50" as="geometry" />
        </mxCell>
        <mxCell id="lY9ykRblTHQBcWYiNTN7-75" value="FULL_NAME&lt;span style=&quot;color: rgba(0, 0, 0, 0); font-family: monospace; font-size: 0px; text-align: start; text-wrap: nowrap;&quot;&gt;%3CmxGraphModel%3E%3Croot%3E%3CmxCell%20id%3D%220%22%2F%3E%3CmxCell%20id%3D%221%22%20parent%3D%220%22%2F%3E%3CmxCell%20id%3D%222%22%20value%3D%22CUSTOMER_ID%22%20style%3D%22ellipse%3BwhiteSpace%3Dwrap%3Bhtml%3D1%3B%22%20vertex%3D%221%22%20parent%3D%221%22%3E%3CmxGeometry%20x%3D%22-840%22%20y%3D%22645%22%20width%3D%22150%22%20height%3D%2255%22%20as%3D%22geometry%22%2F%3E%3C%2FmxCell%3E%3C%2Froot%3E%3C%2FmxGraphModel%3E&lt;/span&gt;" style="ellipse;whiteSpace=wrap;html=1;" vertex="1" parent="WIyWlLk6GJQsqaUBKTNV-1">
          <mxGeometry x="-660" y="765" width="135" height="50" as="geometry" />
        </mxCell>
        <mxCell id="lY9ykRblTHQBcWYiNTN7-76" value="PHONE" style="ellipse;whiteSpace=wrap;html=1;" vertex="1" parent="WIyWlLk6GJQsqaUBKTNV-1">
          <mxGeometry x="-650" y="565" width="120" height="40" as="geometry" />
        </mxCell>
        <mxCell id="lY9ykRblTHQBcWYiNTN7-77" value="AGE" style="ellipse;whiteSpace=wrap;html=1;" vertex="1" parent="WIyWlLk6GJQsqaUBKTNV-1">
          <mxGeometry x="-765" y="557.5" width="90" height="40" as="geometry" />
        </mxCell>
        <mxCell id="lY9ykRblTHQBcWYiNTN7-78" value="E-MAIL" style="ellipse;whiteSpace=wrap;html=1;" vertex="1" parent="WIyWlLk6GJQsqaUBKTNV-1">
          <mxGeometry x="-505" y="563" width="115" height="42.5" as="geometry" />
        </mxCell>
        <mxCell id="lY9ykRblTHQBcWYiNTN7-79" value="LICENCE_NUMBER" style="ellipse;whiteSpace=wrap;html=1;" vertex="1" parent="WIyWlLk6GJQsqaUBKTNV-1">
          <mxGeometry x="-430" y="710" width="150" height="55" as="geometry" />
        </mxCell>
        <mxCell id="lY9ykRblTHQBcWYiNTN7-80" value="STATE" style="ellipse;whiteSpace=wrap;html=1;" vertex="1" parent="WIyWlLk6GJQsqaUBKTNV-1">
          <mxGeometry x="-513" y="765" width="100" height="35" as="geometry" />
        </mxCell>
        <mxCell id="lY9ykRblTHQBcWYiNTN7-81" value="CITY" style="ellipse;whiteSpace=wrap;html=1;" vertex="1" parent="WIyWlLk6GJQsqaUBKTNV-1">
          <mxGeometry x="-790" y="680" width="110" height="30" as="geometry" />
        </mxCell>
        <mxCell id="lY9ykRblTHQBcWYiNTN7-82" value="" style="endArrow=none;html=1;rounded=0;exitX=1;exitY=0.5;exitDx=0;exitDy=0;entryX=-0.006;entryY=0.572;entryDx=0;entryDy=0;entryPerimeter=0;" edge="1" parent="WIyWlLk6GJQsqaUBKTNV-1" source="lY9ykRblTHQBcWYiNTN7-81" target="lY9ykRblTHQBcWYiNTN7-71">
          <mxGeometry width="50" height="50" relative="1" as="geometry">
            <mxPoint x="-540" y="700" as="sourcePoint" />
            <mxPoint x="-490" y="650" as="targetPoint" />
          </mxGeometry>
        </mxCell>
        <mxCell id="lY9ykRblTHQBcWYiNTN7-83" value="" style="endArrow=none;html=1;rounded=0;exitX=1;exitY=0;exitDx=0;exitDy=0;entryX=0;entryY=1;entryDx=0;entryDy=0;" edge="1" parent="WIyWlLk6GJQsqaUBKTNV-1" source="lY9ykRblTHQBcWYiNTN7-74" target="lY9ykRblTHQBcWYiNTN7-71">
          <mxGeometry width="50" height="50" relative="1" as="geometry">
            <mxPoint x="-540" y="700" as="sourcePoint" />
            <mxPoint x="-490" y="650" as="targetPoint" />
          </mxGeometry>
        </mxCell>
        <mxCell id="lY9ykRblTHQBcWYiNTN7-84" value="" style="endArrow=none;html=1;rounded=0;entryX=0.536;entryY=0.045;entryDx=0;entryDy=0;entryPerimeter=0;exitX=0.25;exitY=1;exitDx=0;exitDy=0;" edge="1" parent="WIyWlLk6GJQsqaUBKTNV-1" source="lY9ykRblTHQBcWYiNTN7-71" target="lY9ykRblTHQBcWYiNTN7-75">
          <mxGeometry width="50" height="50" relative="1" as="geometry">
            <mxPoint x="-540" y="700" as="sourcePoint" />
            <mxPoint x="-490" y="650" as="targetPoint" />
          </mxGeometry>
        </mxCell>
        <mxCell id="lY9ykRblTHQBcWYiNTN7-85" value="" style="endArrow=none;html=1;rounded=0;exitX=0.5;exitY=0;exitDx=0;exitDy=0;entryX=0.75;entryY=1;entryDx=0;entryDy=0;" edge="1" parent="WIyWlLk6GJQsqaUBKTNV-1" source="lY9ykRblTHQBcWYiNTN7-80" target="lY9ykRblTHQBcWYiNTN7-71">
          <mxGeometry width="50" height="50" relative="1" as="geometry">
            <mxPoint x="-540" y="700" as="sourcePoint" />
            <mxPoint x="-490" y="650" as="targetPoint" />
          </mxGeometry>
        </mxCell>
        <mxCell id="lY9ykRblTHQBcWYiNTN7-86" value="" style="endArrow=none;html=1;rounded=0;entryX=0;entryY=0;entryDx=0;entryDy=0;exitX=1;exitY=1;exitDx=0;exitDy=0;" edge="1" parent="WIyWlLk6GJQsqaUBKTNV-1" source="lY9ykRblTHQBcWYiNTN7-71" target="lY9ykRblTHQBcWYiNTN7-79">
          <mxGeometry width="50" height="50" relative="1" as="geometry">
            <mxPoint x="-540" y="700" as="sourcePoint" />
            <mxPoint x="-490" y="650" as="targetPoint" />
          </mxGeometry>
        </mxCell>
        <mxCell id="lY9ykRblTHQBcWYiNTN7-87" value="" style="endArrow=none;html=1;rounded=0;entryX=1;entryY=0.5;entryDx=0;entryDy=0;exitX=0;exitY=0.25;exitDx=0;exitDy=0;" edge="1" parent="WIyWlLk6GJQsqaUBKTNV-1" source="lY9ykRblTHQBcWYiNTN7-71" target="lY9ykRblTHQBcWYiNTN7-73">
          <mxGeometry width="50" height="50" relative="1" as="geometry">
            <mxPoint x="-540" y="700" as="sourcePoint" />
            <mxPoint x="-490" y="650" as="targetPoint" />
          </mxGeometry>
        </mxCell>
        <mxCell id="lY9ykRblTHQBcWYiNTN7-88" value="" style="endArrow=none;html=1;rounded=0;entryX=1;entryY=1;entryDx=0;entryDy=0;exitX=0;exitY=0;exitDx=0;exitDy=0;" edge="1" parent="WIyWlLk6GJQsqaUBKTNV-1" source="lY9ykRblTHQBcWYiNTN7-71" target="lY9ykRblTHQBcWYiNTN7-77">
          <mxGeometry width="50" height="50" relative="1" as="geometry">
            <mxPoint x="-540" y="700" as="sourcePoint" />
            <mxPoint x="-490" y="650" as="targetPoint" />
          </mxGeometry>
        </mxCell>
        <mxCell id="lY9ykRblTHQBcWYiNTN7-89" value="" style="endArrow=none;html=1;rounded=0;entryX=0.5;entryY=1;entryDx=0;entryDy=0;" edge="1" parent="WIyWlLk6GJQsqaUBKTNV-1" target="lY9ykRblTHQBcWYiNTN7-76">
          <mxGeometry width="50" height="50" relative="1" as="geometry">
            <mxPoint x="-570" y="640" as="sourcePoint" />
            <mxPoint x="-490" y="650" as="targetPoint" />
          </mxGeometry>
        </mxCell>
        <mxCell id="lY9ykRblTHQBcWYiNTN7-90" value="" style="endArrow=none;html=1;rounded=0;entryX=0.34;entryY=0.953;entryDx=0;entryDy=0;entryPerimeter=0;exitX=0.75;exitY=0;exitDx=0;exitDy=0;" edge="1" parent="WIyWlLk6GJQsqaUBKTNV-1" source="lY9ykRblTHQBcWYiNTN7-71" target="lY9ykRblTHQBcWYiNTN7-78">
          <mxGeometry width="50" height="50" relative="1" as="geometry">
            <mxPoint x="-540" y="700" as="sourcePoint" />
            <mxPoint x="-490" y="650" as="targetPoint" />
          </mxGeometry>
        </mxCell>
        <mxCell id="lY9ykRblTHQBcWYiNTN7-91" value="&lt;font style=&quot;font-size: 14px;&quot;&gt;RENTED IN&lt;/font&gt;" style="rhombus;whiteSpace=wrap;html=1;" vertex="1" parent="WIyWlLk6GJQsqaUBKTNV-1">
          <mxGeometry x="820" y="230" width="130" height="130" as="geometry" />
        </mxCell>
        <mxCell id="lY9ykRblTHQBcWYiNTN7-92" value="" style="endArrow=none;html=1;rounded=0;exitX=0;exitY=0.25;exitDx=0;exitDy=0;entryX=0;entryY=0.5;entryDx=0;entryDy=0;" edge="1" parent="WIyWlLk6GJQsqaUBKTNV-1" source="lY9ykRblTHQBcWYiNTN7-0" target="lY9ykRblTHQBcWYiNTN7-91">
          <mxGeometry width="50" height="50" relative="1" as="geometry">
            <mxPoint x="680" y="307.5" as="sourcePoint" />
            <mxPoint x="730" y="257.5" as="targetPoint" />
          </mxGeometry>
        </mxCell>
        <mxCell id="lY9ykRblTHQBcWYiNTN7-93" value="&lt;font style=&quot;font-size: 18px;&quot;&gt;VEHICLES&lt;/font&gt;" style="rounded=0;whiteSpace=wrap;html=1;" vertex="1" parent="WIyWlLk6GJQsqaUBKTNV-1">
          <mxGeometry x="1200" y="255" width="120" height="60" as="geometry" />
        </mxCell>
        <mxCell id="lY9ykRblTHQBcWYiNTN7-94" value="VEHICLE_ID" style="ellipse;whiteSpace=wrap;html=1;" vertex="1" parent="WIyWlLk6GJQsqaUBKTNV-1">
          <mxGeometry x="1340" y="380" width="140" height="60" as="geometry" />
        </mxCell>
        <mxCell id="lY9ykRblTHQBcWYiNTN7-95" value="TYPE_ID" style="ellipse;whiteSpace=wrap;html=1;" vertex="1" parent="WIyWlLk6GJQsqaUBKTNV-1">
          <mxGeometry x="1440" y="320" width="140" height="60" as="geometry" />
        </mxCell>
        <mxCell id="lY9ykRblTHQBcWYiNTN7-96" value="BRANCH_ID" style="ellipse;whiteSpace=wrap;html=1;" vertex="1" parent="WIyWlLk6GJQsqaUBKTNV-1">
          <mxGeometry x="1170" y="130" width="140" height="60" as="geometry" />
        </mxCell>
        <mxCell id="lY9ykRblTHQBcWYiNTN7-97" value="CURRENT-MILEAGE" style="ellipse;whiteSpace=wrap;html=1;" vertex="1" parent="WIyWlLk6GJQsqaUBKTNV-1">
          <mxGeometry x="1460" y="250" width="140" height="60" as="geometry" />
        </mxCell>
        <mxCell id="lY9ykRblTHQBcWYiNTN7-98" value="COLOR" style="ellipse;whiteSpace=wrap;html=1;" vertex="1" parent="WIyWlLk6GJQsqaUBKTNV-1">
          <mxGeometry x="1320" y="175" width="100" height="35" as="geometry" />
        </mxCell>
        <mxCell id="lY9ykRblTHQBcWYiNTN7-99" value="MODEL" style="ellipse;whiteSpace=wrap;html=1;" vertex="1" parent="WIyWlLk6GJQsqaUBKTNV-1">
          <mxGeometry x="1450" y="207.5" width="90" height="27.5" as="geometry" />
        </mxCell>
        <mxCell id="lY9ykRblTHQBcWYiNTN7-100" value="YEAR" style="ellipse;whiteSpace=wrap;html=1;" vertex="1" parent="WIyWlLk6GJQsqaUBKTNV-1">
          <mxGeometry x="1170" y="340" width="110" height="60" as="geometry" />
        </mxCell>
        <mxCell id="lY9ykRblTHQBcWYiNTN7-101" value="LICENSE_PLATE" style="ellipse;whiteSpace=wrap;html=1;" vertex="1" parent="WIyWlLk6GJQsqaUBKTNV-1">
          <mxGeometry x="1010" y="332.5" width="140" height="50" as="geometry" />
        </mxCell>
        <mxCell id="lY9ykRblTHQBcWYiNTN7-102" value="MANUFACTURAR" style="ellipse;whiteSpace=wrap;html=1;" vertex="1" parent="WIyWlLk6GJQsqaUBKTNV-1">
          <mxGeometry x="980" y="175" width="140" height="60" as="geometry" />
        </mxCell>
        <mxCell id="lY9ykRblTHQBcWYiNTN7-103" value="" style="endArrow=none;html=1;rounded=0;exitX=1;exitY=0.5;exitDx=0;exitDy=0;entryX=0;entryY=0.5;entryDx=0;entryDy=0;" edge="1" parent="WIyWlLk6GJQsqaUBKTNV-1" source="lY9ykRblTHQBcWYiNTN7-91" target="lY9ykRblTHQBcWYiNTN7-93">
          <mxGeometry width="50" height="50" relative="1" as="geometry">
            <mxPoint x="1340" y="390" as="sourcePoint" />
            <mxPoint x="1390" y="340" as="targetPoint" />
          </mxGeometry>
        </mxCell>
        <mxCell id="lY9ykRblTHQBcWYiNTN7-104" value="" style="endArrow=none;html=1;rounded=0;entryX=1;entryY=1;entryDx=0;entryDy=0;exitX=0;exitY=0;exitDx=0;exitDy=0;" edge="1" parent="WIyWlLk6GJQsqaUBKTNV-1" source="lY9ykRblTHQBcWYiNTN7-93" target="lY9ykRblTHQBcWYiNTN7-102">
          <mxGeometry width="50" height="50" relative="1" as="geometry">
            <mxPoint x="1340" y="390" as="sourcePoint" />
            <mxPoint x="1390" y="340" as="targetPoint" />
          </mxGeometry>
        </mxCell>
        <mxCell id="lY9ykRblTHQBcWYiNTN7-105" value="" style="endArrow=none;html=1;rounded=0;entryX=0.5;entryY=1;entryDx=0;entryDy=0;exitX=0.25;exitY=0;exitDx=0;exitDy=0;" edge="1" parent="WIyWlLk6GJQsqaUBKTNV-1" source="lY9ykRblTHQBcWYiNTN7-93" target="lY9ykRblTHQBcWYiNTN7-96">
          <mxGeometry width="50" height="50" relative="1" as="geometry">
            <mxPoint x="1110" y="240" as="sourcePoint" />
            <mxPoint x="1160" y="190" as="targetPoint" />
          </mxGeometry>
        </mxCell>
        <mxCell id="lY9ykRblTHQBcWYiNTN7-106" value="" style="endArrow=none;html=1;rounded=0;entryX=0.5;entryY=1;entryDx=0;entryDy=0;" edge="1" parent="WIyWlLk6GJQsqaUBKTNV-1" source="lY9ykRblTHQBcWYiNTN7-100" target="lY9ykRblTHQBcWYiNTN7-93">
          <mxGeometry width="50" height="50" relative="1" as="geometry">
            <mxPoint x="1110" y="240" as="sourcePoint" />
            <mxPoint x="1160" y="190" as="targetPoint" />
          </mxGeometry>
        </mxCell>
        <mxCell id="lY9ykRblTHQBcWYiNTN7-107" value="" style="endArrow=none;html=1;rounded=0;exitX=0;exitY=1;exitDx=0;exitDy=0;entryX=0.5;entryY=0;entryDx=0;entryDy=0;" edge="1" parent="WIyWlLk6GJQsqaUBKTNV-1" source="lY9ykRblTHQBcWYiNTN7-93" target="lY9ykRblTHQBcWYiNTN7-101">
          <mxGeometry width="50" height="50" relative="1" as="geometry">
            <mxPoint x="1110" y="240" as="sourcePoint" />
            <mxPoint x="1160" y="190" as="targetPoint" />
          </mxGeometry>
        </mxCell>
        <mxCell id="lY9ykRblTHQBcWYiNTN7-108" value="" style="endArrow=none;html=1;rounded=0;entryX=0;entryY=1;entryDx=0;entryDy=0;exitX=1;exitY=0;exitDx=0;exitDy=0;" edge="1" parent="WIyWlLk6GJQsqaUBKTNV-1" source="lY9ykRblTHQBcWYiNTN7-93" target="lY9ykRblTHQBcWYiNTN7-98">
          <mxGeometry width="50" height="50" relative="1" as="geometry">
            <mxPoint x="1110" y="300" as="sourcePoint" />
            <mxPoint x="1160" y="250" as="targetPoint" />
          </mxGeometry>
        </mxCell>
        <mxCell id="lY9ykRblTHQBcWYiNTN7-109" value="" style="endArrow=none;html=1;rounded=0;exitX=1;exitY=0.25;exitDx=0;exitDy=0;entryX=0;entryY=0.5;entryDx=0;entryDy=0;" edge="1" parent="WIyWlLk6GJQsqaUBKTNV-1" source="lY9ykRblTHQBcWYiNTN7-93" target="lY9ykRblTHQBcWYiNTN7-99">
          <mxGeometry width="50" height="50" relative="1" as="geometry">
            <mxPoint x="1110" y="300" as="sourcePoint" />
            <mxPoint x="1160" y="250" as="targetPoint" />
          </mxGeometry>
        </mxCell>
        <mxCell id="lY9ykRblTHQBcWYiNTN7-111" value="" style="endArrow=none;html=1;rounded=0;exitX=0;exitY=0.5;exitDx=0;exitDy=0;" edge="1" parent="WIyWlLk6GJQsqaUBKTNV-1" source="lY9ykRblTHQBcWYiNTN7-97">
          <mxGeometry width="50" height="50" relative="1" as="geometry">
            <mxPoint x="1110" y="300" as="sourcePoint" />
            <mxPoint x="1320" y="280" as="targetPoint" />
          </mxGeometry>
        </mxCell>
        <mxCell id="lY9ykRblTHQBcWYiNTN7-112" value="" style="endArrow=none;html=1;rounded=0;exitX=0;exitY=0.5;exitDx=0;exitDy=0;entryX=1;entryY=0.75;entryDx=0;entryDy=0;" edge="1" parent="WIyWlLk6GJQsqaUBKTNV-1" source="lY9ykRblTHQBcWYiNTN7-95" target="lY9ykRblTHQBcWYiNTN7-93">
          <mxGeometry width="50" height="50" relative="1" as="geometry">
            <mxPoint x="1110" y="300" as="sourcePoint" />
            <mxPoint x="1160" y="250" as="targetPoint" />
          </mxGeometry>
        </mxCell>
        <mxCell id="lY9ykRblTHQBcWYiNTN7-113" value="" style="endArrow=none;html=1;rounded=0;entryX=1;entryY=1;entryDx=0;entryDy=0;exitX=0.5;exitY=0;exitDx=0;exitDy=0;" edge="1" parent="WIyWlLk6GJQsqaUBKTNV-1" source="lY9ykRblTHQBcWYiNTN7-94" target="lY9ykRblTHQBcWYiNTN7-93">
          <mxGeometry width="50" height="50" relative="1" as="geometry">
            <mxPoint x="1110" y="300" as="sourcePoint" />
            <mxPoint x="1160" y="250" as="targetPoint" />
          </mxGeometry>
        </mxCell>
        <mxCell id="lY9ykRblTHQBcWYiNTN7-133" value="&lt;font style=&quot;font-size: 18px;&quot;&gt;VEHICLE_MAINTENANCE&lt;/font&gt;" style="rounded=0;whiteSpace=wrap;html=1;" vertex="1" parent="WIyWlLk6GJQsqaUBKTNV-1">
          <mxGeometry x="1205" y="890" width="245" height="60" as="geometry" />
        </mxCell>
        <mxCell id="lY9ykRblTHQBcWYiNTN7-136" value="COST" style="ellipse;whiteSpace=wrap;html=1;" vertex="1" parent="WIyWlLk6GJQsqaUBKTNV-1">
          <mxGeometry x="1600" y="875" width="85" height="45" as="geometry" />
        </mxCell>
        <mxCell id="lY9ykRblTHQBcWYiNTN7-140" value="&lt;font style=&quot;font-size: 12px;&quot;&gt;MAINTENANCE_DATE&lt;/font&gt;" style="ellipse;whiteSpace=wrap;html=1;" vertex="1" parent="WIyWlLk6GJQsqaUBKTNV-1">
          <mxGeometry x="1650" y="970" width="190" height="40" as="geometry" />
        </mxCell>
        <mxCell id="lY9ykRblTHQBcWYiNTN7-141" value="VEHICLE_ID" style="ellipse;whiteSpace=wrap;html=1;" vertex="1" parent="WIyWlLk6GJQsqaUBKTNV-1">
          <mxGeometry x="1101" y="1000" width="140" height="50" as="geometry" />
        </mxCell>
        <mxCell id="lY9ykRblTHQBcWYiNTN7-142" value="&lt;font style=&quot;font-size: 12px;&quot;&gt;MAINTENANCE_ID&lt;/font&gt;" style="ellipse;whiteSpace=wrap;html=1;" vertex="1" parent="WIyWlLk6GJQsqaUBKTNV-1">
          <mxGeometry x="910" y="862.5" width="160" height="57.5" as="geometry" />
        </mxCell>
        <mxCell id="lY9ykRblTHQBcWYiNTN7-145" value="" style="endArrow=none;html=1;rounded=0;entryX=0;entryY=0.5;entryDx=0;entryDy=0;exitX=1;exitY=0;exitDx=0;exitDy=0;" edge="1" parent="WIyWlLk6GJQsqaUBKTNV-1" source="lY9ykRblTHQBcWYiNTN7-133" target="lY9ykRblTHQBcWYiNTN7-136">
          <mxGeometry width="50" height="50" relative="1" as="geometry">
            <mxPoint x="1095" y="875" as="sourcePoint" />
            <mxPoint x="1145" y="825" as="targetPoint" />
          </mxGeometry>
        </mxCell>
        <mxCell id="lY9ykRblTHQBcWYiNTN7-146" value="" style="endArrow=none;html=1;rounded=0;entryX=1;entryY=0.5;entryDx=0;entryDy=0;" edge="1" parent="WIyWlLk6GJQsqaUBKTNV-1" source="lY9ykRblTHQBcWYiNTN7-140" target="lY9ykRblTHQBcWYiNTN7-133">
          <mxGeometry width="50" height="50" relative="1" as="geometry">
            <mxPoint x="1095" y="875" as="sourcePoint" />
            <mxPoint x="1145" y="825" as="targetPoint" />
          </mxGeometry>
        </mxCell>
        <mxCell id="lY9ykRblTHQBcWYiNTN7-147" value="" style="endArrow=none;html=1;rounded=0;exitX=0;exitY=1;exitDx=0;exitDy=0;entryX=0.5;entryY=0;entryDx=0;entryDy=0;" edge="1" parent="WIyWlLk6GJQsqaUBKTNV-1" source="lY9ykRblTHQBcWYiNTN7-133" target="lY9ykRblTHQBcWYiNTN7-141">
          <mxGeometry width="50" height="50" relative="1" as="geometry">
            <mxPoint x="1095" y="875" as="sourcePoint" />
            <mxPoint x="1145" y="825" as="targetPoint" />
          </mxGeometry>
        </mxCell>
        <mxCell id="lY9ykRblTHQBcWYiNTN7-155" value="" style="endArrow=none;html=1;rounded=0;entryX=0;entryY=0.25;entryDx=0;entryDy=0;exitX=1;exitY=0.5;exitDx=0;exitDy=0;" edge="1" parent="WIyWlLk6GJQsqaUBKTNV-1" source="lY9ykRblTHQBcWYiNTN7-142" target="lY9ykRblTHQBcWYiNTN7-133">
          <mxGeometry width="50" height="50" relative="1" as="geometry">
            <mxPoint x="1170" y="1050" as="sourcePoint" />
            <mxPoint x="1220" y="1000" as="targetPoint" />
          </mxGeometry>
        </mxCell>
        <mxCell id="lY9ykRblTHQBcWYiNTN7-156" value="DESCRIPTION" style="ellipse;whiteSpace=wrap;html=1;" vertex="1" parent="WIyWlLk6GJQsqaUBKTNV-1">
          <mxGeometry x="1300" y="1030" width="140" height="50" as="geometry" />
        </mxCell>
        <mxCell id="lY9ykRblTHQBcWYiNTN7-157" value="" style="endArrow=none;html=1;rounded=0;entryX=0.75;entryY=1;entryDx=0;entryDy=0;exitX=0.5;exitY=0;exitDx=0;exitDy=0;" edge="1" parent="WIyWlLk6GJQsqaUBKTNV-1" source="lY9ykRblTHQBcWYiNTN7-156" target="lY9ykRblTHQBcWYiNTN7-133">
          <mxGeometry width="50" height="50" relative="1" as="geometry">
            <mxPoint x="1170" y="1050" as="sourcePoint" />
            <mxPoint x="1220" y="1000" as="targetPoint" />
          </mxGeometry>
        </mxCell>
        <mxCell id="lY9ykRblTHQBcWYiNTN7-159" value="&lt;font style=&quot;font-size: 14px;&quot;&gt;MAINTENANCE&lt;/font&gt;" style="rhombus;whiteSpace=wrap;html=1;" vertex="1" parent="WIyWlLk6GJQsqaUBKTNV-1">
          <mxGeometry x="1267.5" y="620" width="222.5" height="150" as="geometry" />
        </mxCell>
        <mxCell id="lY9ykRblTHQBcWYiNTN7-160" value="" style="endArrow=none;html=1;rounded=0;entryX=0.75;entryY=1;entryDx=0;entryDy=0;exitX=0.5;exitY=0;exitDx=0;exitDy=0;" edge="1" parent="WIyWlLk6GJQsqaUBKTNV-1" source="lY9ykRblTHQBcWYiNTN7-159" target="lY9ykRblTHQBcWYiNTN7-93">
          <mxGeometry width="50" height="50" relative="1" as="geometry">
            <mxPoint x="1320" y="540" as="sourcePoint" />
            <mxPoint x="1370" y="490" as="targetPoint" />
          </mxGeometry>
        </mxCell>
        <mxCell id="lY9ykRblTHQBcWYiNTN7-161" value="" style="endArrow=none;html=1;rounded=0;entryX=0.5;entryY=1;entryDx=0;entryDy=0;exitX=0.667;exitY=0.022;exitDx=0;exitDy=0;exitPerimeter=0;" edge="1" parent="WIyWlLk6GJQsqaUBKTNV-1" source="lY9ykRblTHQBcWYiNTN7-133" target="lY9ykRblTHQBcWYiNTN7-159">
          <mxGeometry width="50" height="50" relative="1" as="geometry">
            <mxPoint x="1380" y="850" as="sourcePoint" />
            <mxPoint x="1430" y="800" as="targetPoint" />
          </mxGeometry>
        </mxCell>
      </root>
    </mxGraphModel>
  </diagram>
</mxfile>
